# xmcd
# 
# Track frame offsets:
#     150
#     12805
#     37223
#     48712
#     62432
#     75276
#     87502
#     101867
#     114785
#     128451
#     141548
#     155272
#     167154
#     178184
#     189084
#     201031
#     214479
#     227605
#     240712
#     252540
# 
# Disc length: 3620
# 
# Revision: 2
# Processed by: cddbd v1.5.2PL0 Copyright (c) Steve Scherf et al.
# Submitted via: BonkEnc v1.0.6
# 
DISCID=120e2214
DTITLE=Various Artist - Time Life Treasury of The Blues
DYEAR=2003
DGENRE=Blues
TTITLE0=Albert King - Born Under A Bad Sign
TTITLE1=B.B. King - The Thrill Is Gone
TTITLE2=John Lee Hooker - Boom Boom
TTITLE3=Koko Taylor - Wang Dang Doodle
TTITLE4=Willie Mae "Big Mama" Thorton - Hound Dog
TTITLE5=Howlin' Wolf - How Many More Years
TTITLE6=Elmore James and His Broom Dusters - Dust My Blues
TTITLE7=Muddy Waters - I'm Your Hoochie Coochie Man
TTITLE8=T-Bone Walker - Call It Stormy Monday
TTITLE9=Arthur "Big Boy" Crudup - Thats All Right
TTITLE10=Guitar Slim - The Things That I Used To Do
TTITLE11=Little Walter - My Babe
TTITLE12=Wilbert Harrison - Kansas City
TTITLE13=Jimmy Reed - Baby What You Want Me To Do
TTITLE14=Freedy King - I'm Tore Down
TTITLE15=Otis Rush - I Cant Quit You Baby
TTITLE16=Lightnin' Hopkins - Mojo Hand
TTITLE17=Slim Harpo - Baby Scratch My Back
TTITLE18=Bobby Bland - Turn On Your Love Light
TTITLE19=Muddy Waters - Got My Mojo Working
EXTD=
EXTT0=
EXTT1=
EXTT2=
EXTT3=
EXTT4=
EXTT5=
EXTT6=
EXTT7=
EXTT8=
EXTT9=
EXTT10=
EXTT11=
EXTT12=
EXTT13=
EXTT14=
EXTT15=
EXTT16=
EXTT17=
EXTT18=
EXTT19=
PLAYORDER=
